<svg width="84" height="84" viewBox="0 0 83 84" fill="none" xmlns="http://www.w3.org/2000/svg">
  <path
    d="M60.6502 83.9996C73.049 83.9996 83.1002 73.9484 83.1002 61.5496C83.1002 49.1508 73.049 39.0996 60.6502 39.0996C48.2514 39.0996 38.2002 49.1508 38.2002 61.5496C38.2002 73.9484 48.2514 83.9996 60.6502 83.9996Z"
    fill="#97CF26"/>
  <path
    d="M18.45 71.9996C24.2214 71.9996 28.9 67.321 28.9 61.5496C28.9 55.7782 24.2214 51.0996 18.45 51.0996C12.6786 51.0996 8 55.7782 8 61.5496C8 67.321 12.6786 71.9996 18.45 71.9996Z"
    fill="#A169F7"/>
  <path
    d="M60.6502 33.8004C68.6307 33.8004 75.1002 27.3309 75.1002 19.3504C75.1002 11.3699 68.6307 4.90039 60.6502 4.90039C52.6697 4.90039 46.2002 11.3699 46.2002 19.3504C46.2002 27.3309 52.6697 33.8004 60.6502 33.8004Z"
    fill="#FF6163"/>
  <path
    d="M18.45 37.8004C28.6397 37.8004 36.9 29.5401 36.9 19.3504C36.9 9.16069 28.6397 0.900391 18.45 0.900391C8.2603 0.900391 0 9.16069 0 19.3504C0 29.5401 8.2603 37.8004 18.45 37.8004Z"
    fill="#00AAFF"/>
</svg>
