<svg xmlns="http://www.w3.org/2000/svg" version="1.0" width="980.000000pt" height="686.000000pt"
     viewBox="0 0 980.000000 686.000000" preserveAspectRatio="xMidYMid meet">
  <g transform="translate(0.000000,686.000000) scale(0.100000,-0.100000)" fill="#000000" stroke="none">
    <path
      d="M5680 6854 c-217 -26 -360 -53 -514 -99 -659 -195 -1200 -620 -1551 -1220 -116 -197 -97 -182 -180 -142 -94 46 -260 102 -381 129 -144 31 -425 31 -571 0 -447 -97 -816 -378 -1013 -772 -84 -167 -143 -382 -155 -565 l-7 -101 -75 -33 c-194 -88 -445 -265 -612 -432 -311 -311 -515 -709 -593 -1159 -18 -103 -22 -163 -22 -340 0 -229 11 -320 59 -511 151 -595 568 -1108 1125 -1383 246 -121 503 -189 795 -208 239 -16 5591 -16 5830 0 527 35 981 240 1356 612 349 347 557 773 614 1255 53 456 -56 951 -295 1340 -205 334 -543 642 -883 806 l-114 54 -7 205 c-16 452 -85 744 -261 1105 -252 518 -688 947 -1220 1205 -347 168 -686 246 -1105 255 -102 2 -201 1 -220 -1z m545 -340 c517 -72 975 -323 1365 -748 166 -181 240 -291 356 -531 146 -301 206 -544 230 -924 l7 -114 -44 6 c-79 12 -392 37 -462 37 -59 0 -72 -3 -88 -22 -61 -72 -75 -151 -36 -209 34 -52 77 -67 236 -84 285 -30 469 -82 696 -195 77 -39 183 -101 235 -137 123 -88 346 -310 432 -433 133 -188 253 -460 295 -668 23 -111 26 -595 5 -707 -37 -199 -179 -523 -309 -704 -38 -52 -108 -137 -157 -189 -223 -233 -473 -387 -814 -499 l-167 -54 -2690 -6 c-1658 -3 -2845 -1 -3095 5 -382 10 -411 12 -505 35 -295 75 -565 214 -793 410 -286 245 -517 659 -576 1033 -59 376 -7 756 149 1081 281 586 882 990 1539 1032 139 9 174 23 213 81 45 66 16 175 -57 213 -31 16 -51 18 -175 13 -77 -4 -189 -13 -250 -21 -60 -7 -113 -11 -118 -8 -29 18 33 254 104 394 98 197 323 422 507 510 236 112 497 148 722 101 117 -25 251 -71 329 -112 133 -71 385 -310 456 -432 49 -84 71 -106 118 -119 63 -17 113 -3 163 45 38 37 44 48 44 85 0 73 -92 229 -233 397 l-75 88 49 98 c124 246 318 503 516 681 368 331 855 548 1315 587 136 11 425 3 563 -16z"/>
    <path
      d="M4815 4230 c-282 -27 -578 -124 -821 -271 -337 -203 -652 -532 -963 -1004 -122 -186 -181 -294 -181 -335 0 -43 36 -117 129 -270 191 -311 316 -474 522 -680 433 -434 832 -626 1397 -672 347 -28 697 40 1017 196 402 197 764 534 1081 1007 111 167 224 374 224 412 0 75 -247 469 -469 747 -41 52 -134 154 -206 225 -209 209 -377 331 -620 450 -203 99 -360 150 -555 180 -120 19 -424 27 -555 15z m555 -335 c352 -64 709 -271 989 -573 135 -145 229 -267 367 -473 139 -208 149 -234 115 -299 -104 -200 -296 -455 -481 -641 -282 -284 -568 -458 -910 -555 -90 -25 -110 -27 -364 -31 -312 -6 -378 1 -551 58 -310 102 -563 265 -815 526 -177 182 -305 347 -455 584 l-76 120 72 117 c417 672 884 1052 1439 1171 84 18 122 20 335 17 169 -3 268 -9 335 -21z"/>
    <path
      d="M4933 3366 c-78 -66 -64 -204 26 -250 15 -8 56 -19 91 -26 244 -42 391 -167 436 -369 30 -135 4 -262 -80 -384 -126 -184 -413 -241 -612 -121 -107 64 -166 140 -209 267 -33 99 -32 161 5 285 17 56 30 118 30 139 0 108 -122 176 -226 127 -109 -52 -178 -378 -125 -596 36 -154 119 -290 243 -403 84 -76 173 -127 288 -166 87 -30 106 -33 225 -33 154 -1 218 13 350 78 165 82 282 202 370 381 60 121 68 166 64 359 l-4 162 -56 115 c-110 225 -250 355 -455 425 -64 22 -103 28 -204 32 -124 4 -126 4 -157 -22z"/>
  </g>
</svg>
